<?xml version="1.0" encoding="UTF-8" standalone="no"?>
<svg
   width="460.8pt"
   height="345.6pt"
   viewBox="0 0 460.8 345.6"
   version="1.1"
   id="svg104"
   sodipodi:docname="H_2_cnot_count_over_truncation_threshold.svg"
   inkscape:version="1.4 (86a8ad7, 2024-10-11)"
   xmlns:inkscape="http://www.inkscape.org/namespaces/inkscape"
   xmlns:sodipodi="http://sodipodi.sourceforge.net/DTD/sodipodi-0.dtd"
   xmlns:xlink="http://www.w3.org/1999/xlink"
   xmlns="http://www.w3.org/2000/svg"
   xmlns:svg="http://www.w3.org/2000/svg"
   xmlns:rdf="http://www.w3.org/1999/02/22-rdf-syntax-ns#"
   xmlns:cc="http://creativecommons.org/ns#"
   xmlns:dc="http://purl.org/dc/elements/1.1/">
  <sodipodi:namedview
     id="namedview104"
     pagecolor="#ffffff"
     bordercolor="#666666"
     borderopacity="1.0"
     inkscape:showpageshadow="2"
     inkscape:pageopacity="0.0"
     inkscape:pagecheckerboard="0"
     inkscape:deskcolor="#d1d1d1"
     inkscape:document-units="pt"
     inkscape:zoom="1.937934"
     inkscape:cx="307.028"
     inkscape:cy="230.4"
     inkscape:current-layer="axes_1" />
  <metadata
     id="metadata1">
    <rdf:RDF>
      <cc:Work>
        <dc:type
           rdf:resource="http://purl.org/dc/dcmitype/StillImage" />
        <dc:date>2025-05-05T18:08:26.534348</dc:date>
        <dc:format>image/svg+xml</dc:format>
        <dc:creator>
          <cc:Agent>
            <dc:title>Matplotlib v3.10.1, https://matplotlib.org/</dc:title>
          </cc:Agent>
        </dc:creator>
      </cc:Work>
    </rdf:RDF>
  </metadata>
  <defs
     id="defs1">
    <style
       type="text/css"
       id="style1">*{stroke-linejoin: round; stroke-linecap: butt}</style>
  </defs>
  <g
     id="figure_1">
    <g
       id="patch_1"
       transform="matrix(0.86478163,0,0,0.8656215,17.802464,39.862039)">
      <path
         d="M 0,345.6 H 460.8 V 0 H 0 Z"
         style="fill:#ffffff"
         id="path1" />
    </g>
    <g
       id="axes_1">
      <g
         id="patch_2">
        <path
           d="M 57.6 307.584  L 414.72 307.584  L 414.72 41.472  L 57.6 41.472  z "
           style="fill: #ffffff"
           id="path2" />
      </g>
      <g
         id="matplotlib.axis_1">
        <g
           id="xtick_1">
          <g
             id="line2d_1">
            <defs
               id="defs2">
              <path
                 id="m29cf7ed825"
                 d="M 0 0  L 0 3.5  "
                 style="stroke: #000000; stroke-width: 0.8" />
            </defs>
            <g
               id="g2">
              <use
                 xlink:href="#m29cf7ed825"
                 x="73.832727"
                 y="307.584"
                 style="stroke: #000000; stroke-width: 0.8"
                 id="use2" />
            </g>
          </g>
          <g
             id="text_1">
            <!-- 0.0 -->
            <g
               transform="translate(65.881165 322.182437) scale(0.1 -0.1)"
               id="g5">
              <defs
                 id="defs3">
                <path
                   id="DejaVuSans-30"
                   d="M 2034 4250  Q 1547 4250 1301 3770  Q 1056 3291 1056 2328  Q 1056 1369 1301 889  Q 1547 409 2034 409  Q 2525 409 2770 889  Q 3016 1369 3016 2328  Q 3016 3291 2770 3770  Q 2525 4250 2034 4250  z M 2034 4750  Q 2819 4750 3233 4129  Q 3647 3509 3647 2328  Q 3647 1150 3233 529  Q 2819 -91 2034 -91  Q 1250 -91 836 529  Q 422 1150 422 2328  Q 422 3509 836 4129  Q 1250 4750 2034 4750  z "
                   transform="scale(0.015625)" />
                <path
                   id="DejaVuSans-2e"
                   d="M 684 794  L 1344 794  L 1344 0  L 684 0  L 684 794  z "
                   transform="scale(0.015625)" />
              </defs>
              <use
                 xlink:href="#DejaVuSans-30"
                 id="use3" />
              <use
                 xlink:href="#DejaVuSans-2e"
                 transform="translate(63.623047 0)"
                 id="use4" />
              <use
                 xlink:href="#DejaVuSans-30"
                 transform="translate(95.410156 0)"
                 id="use5" />
            </g>
          </g>
        </g>
        <g
           id="xtick_2">
          <g
             id="line2d_2">
            <g
               id="g6">
              <use
                 xlink:href="#m29cf7ed825"
                 x="138.763636"
                 y="307.584"
                 style="stroke: #000000; stroke-width: 0.8"
                 id="use6" />
            </g>
          </g>
          <g
             id="text_2">
            <!-- 0.2 -->
            <g
               transform="translate(130.812074 322.182437) scale(0.1 -0.1)"
               id="g9">
              <defs
                 id="defs6">
                <path
                   id="DejaVuSans-32"
                   d="M 1228 531  L 3431 531  L 3431 0  L 469 0  L 469 531  Q 828 903 1448 1529  Q 2069 2156 2228 2338  Q 2531 2678 2651 2914  Q 2772 3150 2772 3378  Q 2772 3750 2511 3984  Q 2250 4219 1831 4219  Q 1534 4219 1204 4116  Q 875 4013 500 3803  L 500 4441  Q 881 4594 1212 4672  Q 1544 4750 1819 4750  Q 2544 4750 2975 4387  Q 3406 4025 3406 3419  Q 3406 3131 3298 2873  Q 3191 2616 2906 2266  Q 2828 2175 2409 1742  Q 1991 1309 1228 531  z "
                   transform="scale(0.015625)" />
              </defs>
              <use
                 xlink:href="#DejaVuSans-30"
                 id="use7" />
              <use
                 xlink:href="#DejaVuSans-2e"
                 transform="translate(63.623047 0)"
                 id="use8" />
              <use
                 xlink:href="#DejaVuSans-32"
                 transform="translate(95.410156 0)"
                 id="use9" />
            </g>
          </g>
        </g>
        <g
           id="xtick_3">
          <g
             id="line2d_3">
            <g
               id="g10">
              <use
                 xlink:href="#m29cf7ed825"
                 x="203.694545"
                 y="307.584"
                 style="stroke: #000000; stroke-width: 0.8"
                 id="use10" />
            </g>
          </g>
          <g
             id="text_3">
            <!-- 0.4 -->
            <g
               transform="translate(195.742983 322.182437) scale(0.1 -0.1)"
               id="g13">
              <defs
                 id="defs10">
                <path
                   id="DejaVuSans-34"
                   d="M 2419 4116  L 825 1625  L 2419 1625  L 2419 4116  z M 2253 4666  L 3047 4666  L 3047 1625  L 3713 1625  L 3713 1100  L 3047 1100  L 3047 0  L 2419 0  L 2419 1100  L 313 1100  L 313 1709  L 2253 4666  z "
                   transform="scale(0.015625)" />
              </defs>
              <use
                 xlink:href="#DejaVuSans-30"
                 id="use11" />
              <use
                 xlink:href="#DejaVuSans-2e"
                 transform="translate(63.623047 0)"
                 id="use12" />
              <use
                 xlink:href="#DejaVuSans-34"
                 transform="translate(95.410156 0)"
                 id="use13" />
            </g>
          </g>
        </g>
        <g
           id="xtick_4">
          <g
             id="line2d_4">
            <g
               id="g14">
              <use
                 xlink:href="#m29cf7ed825"
                 x="268.625455"
                 y="307.584"
                 style="stroke: #000000; stroke-width: 0.8"
                 id="use14" />
            </g>
          </g>
          <g
             id="text_4">
            <!-- 0.6 -->
            <g
               transform="translate(260.673892 322.182437) scale(0.1 -0.1)"
               id="g17">
              <defs
                 id="defs14">
                <path
                   id="DejaVuSans-36"
                   d="M 2113 2584  Q 1688 2584 1439 2293  Q 1191 2003 1191 1497  Q 1191 994 1439 701  Q 1688 409 2113 409  Q 2538 409 2786 701  Q 3034 994 3034 1497  Q 3034 2003 2786 2293  Q 2538 2584 2113 2584  z M 3366 4563  L 3366 3988  Q 3128 4100 2886 4159  Q 2644 4219 2406 4219  Q 1781 4219 1451 3797  Q 1122 3375 1075 2522  Q 1259 2794 1537 2939  Q 1816 3084 2150 3084  Q 2853 3084 3261 2657  Q 3669 2231 3669 1497  Q 3669 778 3244 343  Q 2819 -91 2113 -91  Q 1303 -91 875 529  Q 447 1150 447 2328  Q 447 3434 972 4092  Q 1497 4750 2381 4750  Q 2619 4750 2861 4703  Q 3103 4656 3366 4563  z "
                   transform="scale(0.015625)" />
              </defs>
              <use
                 xlink:href="#DejaVuSans-30"
                 id="use15" />
              <use
                 xlink:href="#DejaVuSans-2e"
                 transform="translate(63.623047 0)"
                 id="use16" />
              <use
                 xlink:href="#DejaVuSans-36"
                 transform="translate(95.410156 0)"
                 id="use17" />
            </g>
          </g>
        </g>
        <g
           id="xtick_5">
          <g
             id="line2d_5">
            <g
               id="g18">
              <use
                 xlink:href="#m29cf7ed825"
                 x="333.556364"
                 y="307.584"
                 style="stroke: #000000; stroke-width: 0.8"
                 id="use18" />
            </g>
          </g>
          <g
             id="text_5">
            <!-- 0.8 -->
            <g
               transform="translate(325.604801 322.182437) scale(0.1 -0.1)"
               id="g21">
              <defs
                 id="defs18">
                <path
                   id="DejaVuSans-38"
                   d="M 2034 2216  Q 1584 2216 1326 1975  Q 1069 1734 1069 1313  Q 1069 891 1326 650  Q 1584 409 2034 409  Q 2484 409 2743 651  Q 3003 894 3003 1313  Q 3003 1734 2745 1975  Q 2488 2216 2034 2216  z M 1403 2484  Q 997 2584 770 2862  Q 544 3141 544 3541  Q 544 4100 942 4425  Q 1341 4750 2034 4750  Q 2731 4750 3128 4425  Q 3525 4100 3525 3541  Q 3525 3141 3298 2862  Q 3072 2584 2669 2484  Q 3125 2378 3379 2068  Q 3634 1759 3634 1313  Q 3634 634 3220 271  Q 2806 -91 2034 -91  Q 1263 -91 848 271  Q 434 634 434 1313  Q 434 1759 690 2068  Q 947 2378 1403 2484  z M 1172 3481  Q 1172 3119 1398 2916  Q 1625 2713 2034 2713  Q 2441 2713 2670 2916  Q 2900 3119 2900 3481  Q 2900 3844 2670 4047  Q 2441 4250 2034 4250  Q 1625 4250 1398 4047  Q 1172 3844 1172 3481  z "
                   transform="scale(0.015625)" />
              </defs>
              <use
                 xlink:href="#DejaVuSans-30"
                 id="use19" />
              <use
                 xlink:href="#DejaVuSans-2e"
                 transform="translate(63.623047 0)"
                 id="use20" />
              <use
                 xlink:href="#DejaVuSans-38"
                 transform="translate(95.410156 0)"
                 id="use21" />
            </g>
          </g>
        </g>
        <g
           id="xtick_6">
          <g
             id="line2d_6">
            <g
               id="g22">
              <use
                 xlink:href="#m29cf7ed825"
                 x="398.487273"
                 y="307.584"
                 style="stroke: #000000; stroke-width: 0.8"
                 id="use22" />
            </g>
          </g>
          <g
             id="text_6">
            <!-- 1.0 -->
            <g
               transform="translate(390.53571 322.182437) scale(0.1 -0.1)"
               id="g25">
              <defs
                 id="defs22">
                <path
                   id="DejaVuSans-31"
                   d="M 794 531  L 1825 531  L 1825 4091  L 703 3866  L 703 4441  L 1819 4666  L 2450 4666  L 2450 531  L 3481 531  L 3481 0  L 794 0  L 794 531  z "
                   transform="scale(0.015625)" />
              </defs>
              <use
                 xlink:href="#DejaVuSans-31"
                 id="use23" />
              <use
                 xlink:href="#DejaVuSans-2e"
                 transform="translate(63.623047 0)"
                 id="use24" />
              <use
                 xlink:href="#DejaVuSans-30"
                 transform="translate(95.410156 0)"
                 id="use25" />
            </g>
          </g>
        </g>
        <g
           id="text_7">
          <!-- Truncation threshold -->
          <g
             transform="translate(184.926406 335.860562) scale(0.1 -0.1)"
             id="g45">
            <defs
               id="defs25">
              <path
                 id="DejaVuSans-54"
                 d="M -19 4666  L 3928 4666  L 3928 4134  L 2272 4134  L 2272 0  L 1638 0  L 1638 4134  L -19 4134  L -19 4666  z "
                 transform="scale(0.015625)" />
              <path
                 id="DejaVuSans-72"
                 d="M 2631 2963  Q 2534 3019 2420 3045  Q 2306 3072 2169 3072  Q 1681 3072 1420 2755  Q 1159 2438 1159 1844  L 1159 0  L 581 0  L 581 3500  L 1159 3500  L 1159 2956  Q 1341 3275 1631 3429  Q 1922 3584 2338 3584  Q 2397 3584 2469 3576  Q 2541 3569 2628 3553  L 2631 2963  z "
                 transform="scale(0.015625)" />
              <path
                 id="DejaVuSans-75"
                 d="M 544 1381  L 544 3500  L 1119 3500  L 1119 1403  Q 1119 906 1312 657  Q 1506 409 1894 409  Q 2359 409 2629 706  Q 2900 1003 2900 1516  L 2900 3500  L 3475 3500  L 3475 0  L 2900 0  L 2900 538  Q 2691 219 2414 64  Q 2138 -91 1772 -91  Q 1169 -91 856 284  Q 544 659 544 1381  z M 1991 3584  L 1991 3584  z "
                 transform="scale(0.015625)" />
              <path
                 id="DejaVuSans-6e"
                 d="M 3513 2113  L 3513 0  L 2938 0  L 2938 2094  Q 2938 2591 2744 2837  Q 2550 3084 2163 3084  Q 1697 3084 1428 2787  Q 1159 2491 1159 1978  L 1159 0  L 581 0  L 581 3500  L 1159 3500  L 1159 2956  Q 1366 3272 1645 3428  Q 1925 3584 2291 3584  Q 2894 3584 3203 3211  Q 3513 2838 3513 2113  z "
                 transform="scale(0.015625)" />
              <path
                 id="DejaVuSans-63"
                 d="M 3122 3366  L 3122 2828  Q 2878 2963 2633 3030  Q 2388 3097 2138 3097  Q 1578 3097 1268 2742  Q 959 2388 959 1747  Q 959 1106 1268 751  Q 1578 397 2138 397  Q 2388 397 2633 464  Q 2878 531 3122 666  L 3122 134  Q 2881 22 2623 -34  Q 2366 -91 2075 -91  Q 1284 -91 818 406  Q 353 903 353 1747  Q 353 2603 823 3093  Q 1294 3584 2113 3584  Q 2378 3584 2631 3529  Q 2884 3475 3122 3366  z "
                 transform="scale(0.015625)" />
              <path
                 id="DejaVuSans-61"
                 d="M 2194 1759  Q 1497 1759 1228 1600  Q 959 1441 959 1056  Q 959 750 1161 570  Q 1363 391 1709 391  Q 2188 391 2477 730  Q 2766 1069 2766 1631  L 2766 1759  L 2194 1759  z M 3341 1997  L 3341 0  L 2766 0  L 2766 531  Q 2569 213 2275 61  Q 1981 -91 1556 -91  Q 1019 -91 701 211  Q 384 513 384 1019  Q 384 1609 779 1909  Q 1175 2209 1959 2209  L 2766 2209  L 2766 2266  Q 2766 2663 2505 2880  Q 2244 3097 1772 3097  Q 1472 3097 1187 3025  Q 903 2953 641 2809  L 641 3341  Q 956 3463 1253 3523  Q 1550 3584 1831 3584  Q 2591 3584 2966 3190  Q 3341 2797 3341 1997  z "
                 transform="scale(0.015625)" />
              <path
                 id="DejaVuSans-74"
                 d="M 1172 4494  L 1172 3500  L 2356 3500  L 2356 3053  L 1172 3053  L 1172 1153  Q 1172 725 1289 603  Q 1406 481 1766 481  L 2356 481  L 2356 0  L 1766 0  Q 1100 0 847 248  Q 594 497 594 1153  L 594 3053  L 172 3053  L 172 3500  L 594 3500  L 594 4494  L 1172 4494  z "
                 transform="scale(0.015625)" />
              <path
                 id="DejaVuSans-69"
                 d="M 603 3500  L 1178 3500  L 1178 0  L 603 0  L 603 3500  z M 603 4863  L 1178 4863  L 1178 4134  L 603 4134  L 603 4863  z "
                 transform="scale(0.015625)" />
              <path
                 id="DejaVuSans-6f"
                 d="M 1959 3097  Q 1497 3097 1228 2736  Q 959 2375 959 1747  Q 959 1119 1226 758  Q 1494 397 1959 397  Q 2419 397 2687 759  Q 2956 1122 2956 1747  Q 2956 2369 2687 2733  Q 2419 3097 1959 3097  z M 1959 3584  Q 2709 3584 3137 3096  Q 3566 2609 3566 1747  Q 3566 888 3137 398  Q 2709 -91 1959 -91  Q 1206 -91 779 398  Q 353 888 353 1747  Q 353 2609 779 3096  Q 1206 3584 1959 3584  z "
                 transform="scale(0.015625)" />
              <path
                 id="DejaVuSans-20"
                 transform="scale(0.015625)" />
              <path
                 id="DejaVuSans-68"
                 d="M 3513 2113  L 3513 0  L 2938 0  L 2938 2094  Q 2938 2591 2744 2837  Q 2550 3084 2163 3084  Q 1697 3084 1428 2787  Q 1159 2491 1159 1978  L 1159 0  L 581 0  L 581 4863  L 1159 4863  L 1159 2956  Q 1366 3272 1645 3428  Q 1925 3584 2291 3584  Q 2894 3584 3203 3211  Q 3513 2838 3513 2113  z "
                 transform="scale(0.015625)" />
              <path
                 id="DejaVuSans-65"
                 d="M 3597 1894  L 3597 1613  L 953 1613  Q 991 1019 1311 708  Q 1631 397 2203 397  Q 2534 397 2845 478  Q 3156 559 3463 722  L 3463 178  Q 3153 47 2828 -22  Q 2503 -91 2169 -91  Q 1331 -91 842 396  Q 353 884 353 1716  Q 353 2575 817 3079  Q 1281 3584 2069 3584  Q 2775 3584 3186 3129  Q 3597 2675 3597 1894  z M 3022 2063  Q 3016 2534 2758 2815  Q 2500 3097 2075 3097  Q 1594 3097 1305 2825  Q 1016 2553 972 2059  L 3022 2063  z "
                 transform="scale(0.015625)" />
              <path
                 id="DejaVuSans-73"
                 d="M 2834 3397  L 2834 2853  Q 2591 2978 2328 3040  Q 2066 3103 1784 3103  Q 1356 3103 1142 2972  Q 928 2841 928 2578  Q 928 2378 1081 2264  Q 1234 2150 1697 2047  L 1894 2003  Q 2506 1872 2764 1633  Q 3022 1394 3022 966  Q 3022 478 2636 193  Q 2250 -91 1575 -91  Q 1294 -91 989 -36  Q 684 19 347 128  L 347 722  Q 666 556 975 473  Q 1284 391 1588 391  Q 1994 391 2212 530  Q 2431 669 2431 922  Q 2431 1156 2273 1281  Q 2116 1406 1581 1522  L 1381 1569  Q 847 1681 609 1914  Q 372 2147 372 2553  Q 372 3047 722 3315  Q 1072 3584 1716 3584  Q 2034 3584 2315 3537  Q 2597 3491 2834 3397  z "
                 transform="scale(0.015625)" />
              <path
                 id="DejaVuSans-6c"
                 d="M 603 4863  L 1178 4863  L 1178 0  L 603 0  L 603 4863  z "
                 transform="scale(0.015625)" />
              <path
                 id="DejaVuSans-64"
                 d="M 2906 2969  L 2906 4863  L 3481 4863  L 3481 0  L 2906 0  L 2906 525  Q 2725 213 2448 61  Q 2172 -91 1784 -91  Q 1150 -91 751 415  Q 353 922 353 1747  Q 353 2572 751 3078  Q 1150 3584 1784 3584  Q 2172 3584 2448 3432  Q 2725 3281 2906 2969  z M 947 1747  Q 947 1113 1208 752  Q 1469 391 1925 391  Q 2381 391 2643 752  Q 2906 1113 2906 1747  Q 2906 2381 2643 2742  Q 2381 3103 1925 3103  Q 1469 3103 1208 2742  Q 947 2381 947 1747  z "
                 transform="scale(0.015625)" />
            </defs>
            <use
               xlink:href="#DejaVuSans-54"
               id="use26" />
            <use
               xlink:href="#DejaVuSans-72"
               transform="translate(46.333984 0)"
               id="use27" />
            <use
               xlink:href="#DejaVuSans-75"
               transform="translate(87.447266 0)"
               id="use28" />
            <use
               xlink:href="#DejaVuSans-6e"
               transform="translate(150.826172 0)"
               id="use29" />
            <use
               xlink:href="#DejaVuSans-63"
               transform="translate(214.205078 0)"
               id="use30" />
            <use
               xlink:href="#DejaVuSans-61"
               transform="translate(269.185547 0)"
               id="use31" />
            <use
               xlink:href="#DejaVuSans-74"
               transform="translate(330.464844 0)"
               id="use32" />
            <use
               xlink:href="#DejaVuSans-69"
               transform="translate(369.673828 0)"
               id="use33" />
            <use
               xlink:href="#DejaVuSans-6f"
               transform="translate(397.457031 0)"
               id="use34" />
            <use
               xlink:href="#DejaVuSans-6e"
               transform="translate(458.638672 0)"
               id="use35" />
            <use
               xlink:href="#DejaVuSans-20"
               transform="translate(522.017578 0)"
               id="use36" />
            <use
               xlink:href="#DejaVuSans-74"
               transform="translate(553.804688 0)"
               id="use37" />
            <use
               xlink:href="#DejaVuSans-68"
               transform="translate(593.013672 0)"
               id="use38" />
            <use
               xlink:href="#DejaVuSans-72"
               transform="translate(656.392578 0)"
               id="use39" />
            <use
               xlink:href="#DejaVuSans-65"
               transform="translate(695.255859 0)"
               id="use40" />
            <use
               xlink:href="#DejaVuSans-73"
               transform="translate(756.779297 0)"
               id="use41" />
            <use
               xlink:href="#DejaVuSans-68"
               transform="translate(808.878906 0)"
               id="use42" />
            <use
               xlink:href="#DejaVuSans-6f"
               transform="translate(872.257812 0)"
               id="use43" />
            <use
               xlink:href="#DejaVuSans-6c"
               transform="translate(933.439453 0)"
               id="use44" />
            <use
               xlink:href="#DejaVuSans-64"
               transform="translate(961.222656 0)"
               id="use45" />
          </g>
        </g>
      </g>
      <g
         id="matplotlib.axis_2">
        <g
           id="ytick_1">
          <g
             id="line2d_7">
            <defs
               id="defs45">
              <path
                 id="m77b8d6560d"
                 d="M 0 0  L -3.5 0  "
                 style="stroke: #000000; stroke-width: 0.8" />
            </defs>
            <g
               id="g46">
              <use
                 xlink:href="#m77b8d6560d"
                 x="57.6"
                 y="307.584"
                 style="stroke: #000000; stroke-width: 0.8"
                 id="use46" />
            </g>
          </g>
          <g
             id="text_8">
            <!-- 0 -->
            <g
               transform="translate(44.2375 311.383219) scale(0.1 -0.1)"
               id="g47">
              <use
                 xlink:href="#DejaVuSans-30"
                 id="use47" />
            </g>
          </g>
        </g>
        <g
           id="ytick_2">
          <g
             id="line2d_8">
            <g
               id="g48">
              <use
                 xlink:href="#m77b8d6560d"
                 x="57.6"
                 y="273.548892"
                 style="stroke: #000000; stroke-width: 0.8"
                 id="use48" />
            </g>
          </g>
          <g
             id="text_9">
            <!-- 8 -->
            <g
               transform="translate(44.2375 277.348111) scale(0.1 -0.1)"
               id="g49">
              <use
                 xlink:href="#DejaVuSans-38"
                 id="use49" />
            </g>
          </g>
        </g>
        <g
           id="ytick_3">
          <g
             id="line2d_9">
            <g
               id="g50">
              <use
                 xlink:href="#m77b8d6560d"
                 x="57.6"
                 y="239.513784"
                 style="stroke: #000000; stroke-width: 0.8"
                 id="use50" />
            </g>
          </g>
          <g
             id="text_10">
            <!-- 16 -->
            <g
               transform="translate(37.875 243.313003) scale(0.1 -0.1)"
               id="g52">
              <use
                 xlink:href="#DejaVuSans-31"
                 id="use51" />
              <use
                 xlink:href="#DejaVuSans-36"
                 transform="translate(63.623047 0)"
                 id="use52" />
            </g>
          </g>
        </g>
        <g
           id="ytick_4">
          <g
             id="line2d_10">
            <g
               id="g53">
              <use
                 xlink:href="#m77b8d6560d"
                 x="57.6"
                 y="205.478676"
                 style="stroke: #000000; stroke-width: 0.8"
                 id="use53" />
            </g>
          </g>
          <g
             id="text_11">
            <!-- 24 -->
            <g
               transform="translate(37.875 209.277895) scale(0.1 -0.1)"
               id="g55">
              <use
                 xlink:href="#DejaVuSans-32"
                 id="use54" />
              <use
                 xlink:href="#DejaVuSans-34"
                 transform="translate(63.623047 0)"
                 id="use55" />
            </g>
          </g>
        </g>
        <g
           id="ytick_5">
          <g
             id="line2d_11">
            <g
               id="g56">
              <use
                 xlink:href="#m77b8d6560d"
                 x="57.6"
                 y="171.443568"
                 style="stroke: #000000; stroke-width: 0.8"
                 id="use56" />
            </g>
          </g>
          <g
             id="text_12">
            <!-- 32 -->
            <g
               transform="translate(37.875 175.242787) scale(0.1 -0.1)"
               id="g58">
              <defs
                 id="defs56">
                <path
                   id="DejaVuSans-33"
                   d="M 2597 2516  Q 3050 2419 3304 2112  Q 3559 1806 3559 1356  Q 3559 666 3084 287  Q 2609 -91 1734 -91  Q 1441 -91 1130 -33  Q 819 25 488 141  L 488 750  Q 750 597 1062 519  Q 1375 441 1716 441  Q 2309 441 2620 675  Q 2931 909 2931 1356  Q 2931 1769 2642 2001  Q 2353 2234 1838 2234  L 1294 2234  L 1294 2753  L 1863 2753  Q 2328 2753 2575 2939  Q 2822 3125 2822 3475  Q 2822 3834 2567 4026  Q 2313 4219 1838 4219  Q 1578 4219 1281 4162  Q 984 4106 628 3988  L 628 4550  Q 988 4650 1302 4700  Q 1616 4750 1894 4750  Q 2613 4750 3031 4423  Q 3450 4097 3450 3541  Q 3450 3153 3228 2886  Q 3006 2619 2597 2516  z "
                   transform="scale(0.015625)" />
              </defs>
              <use
                 xlink:href="#DejaVuSans-33"
                 id="use57" />
              <use
                 xlink:href="#DejaVuSans-32"
                 transform="translate(63.623047 0)"
                 id="use58" />
            </g>
          </g>
        </g>
        <g
           id="ytick_6">
          <g
             id="line2d_12">
            <g
               id="g59">
              <use
                 xlink:href="#m77b8d6560d"
                 x="57.6"
                 y="137.40846"
                 style="stroke: #000000; stroke-width: 0.8"
                 id="use59" />
            </g>
          </g>
          <g
             id="text_13">
            <!-- 40 -->
            <g
               transform="translate(37.875 141.207679) scale(0.1 -0.1)"
               id="g61">
              <use
                 xlink:href="#DejaVuSans-34"
                 id="use60" />
              <use
                 xlink:href="#DejaVuSans-30"
                 transform="translate(63.623047 0)"
                 id="use61" />
            </g>
          </g>
        </g>
        <g
           id="ytick_7">
          <g
             id="line2d_13">
            <g
               id="g62">
              <use
                 xlink:href="#m77b8d6560d"
                 x="57.6"
                 y="103.373353"
                 style="stroke: #000000; stroke-width: 0.8"
                 id="use62" />
            </g>
          </g>
          <g
             id="text_14">
            <!-- 48 -->
            <g
               transform="translate(37.875 107.172571) scale(0.1 -0.1)"
               id="g64">
              <use
                 xlink:href="#DejaVuSans-34"
                 id="use63" />
              <use
                 xlink:href="#DejaVuSans-38"
                 transform="translate(63.623047 0)"
                 id="use64" />
            </g>
          </g>
        </g>
        <g
           id="ytick_8">
          <g
             id="line2d_14">
            <g
               id="g65">
              <use
                 xlink:href="#m77b8d6560d"
                 x="57.6"
                 y="69.338245"
                 style="stroke: #000000; stroke-width: 0.8"
                 id="use65" />
            </g>
          </g>
          <g
             id="text_15">
            <!-- 56 -->
            <g
               transform="translate(37.875 73.137463) scale(0.1 -0.1)"
               id="g67">
              <defs
                 id="defs65">
                <path
                   id="DejaVuSans-35"
                   d="M 691 4666  L 3169 4666  L 3169 4134  L 1269 4134  L 1269 2991  Q 1406 3038 1543 3061  Q 1681 3084 1819 3084  Q 2600 3084 3056 2656  Q 3513 2228 3513 1497  Q 3513 744 3044 326  Q 2575 -91 1722 -91  Q 1428 -91 1123 -41  Q 819 9 494 109  L 494 744  Q 775 591 1075 516  Q 1375 441 1709 441  Q 2250 441 2565 725  Q 2881 1009 2881 1497  Q 2881 1984 2565 2268  Q 2250 2553 1709 2553  Q 1456 2553 1204 2497  Q 953 2441 691 2322  L 691 4666  z "
                   transform="scale(0.015625)" />
              </defs>
              <use
                 xlink:href="#DejaVuSans-35"
                 id="use66" />
              <use
                 xlink:href="#DejaVuSans-36"
                 transform="translate(63.623047 0)"
                 id="use67" />
            </g>
          </g>
        </g>
        <g
           id="text_16">
          <!-- Number of CNOTs -->
          <g
             transform="translate(31.795312 218.613156) rotate(-90) scale(0.1 -0.1)"
             id="g82">
            <defs
               id="defs67">
              <path
                 id="DejaVuSans-4e"
                 d="M 628 4666  L 1478 4666  L 3547 763  L 3547 4666  L 4159 4666  L 4159 0  L 3309 0  L 1241 3903  L 1241 0  L 628 0  L 628 4666  z "
                 transform="scale(0.015625)" />
              <path
                 id="DejaVuSans-6d"
                 d="M 3328 2828  Q 3544 3216 3844 3400  Q 4144 3584 4550 3584  Q 5097 3584 5394 3201  Q 5691 2819 5691 2113  L 5691 0  L 5113 0  L 5113 2094  Q 5113 2597 4934 2840  Q 4756 3084 4391 3084  Q 3944 3084 3684 2787  Q 3425 2491 3425 1978  L 3425 0  L 2847 0  L 2847 2094  Q 2847 2600 2669 2842  Q 2491 3084 2119 3084  Q 1678 3084 1418 2786  Q 1159 2488 1159 1978  L 1159 0  L 581 0  L 581 3500  L 1159 3500  L 1159 2956  Q 1356 3278 1631 3431  Q 1906 3584 2284 3584  Q 2666 3584 2933 3390  Q 3200 3197 3328 2828  z "
                 transform="scale(0.015625)" />
              <path
                 id="DejaVuSans-62"
                 d="M 3116 1747  Q 3116 2381 2855 2742  Q 2594 3103 2138 3103  Q 1681 3103 1420 2742  Q 1159 2381 1159 1747  Q 1159 1113 1420 752  Q 1681 391 2138 391  Q 2594 391 2855 752  Q 3116 1113 3116 1747  z M 1159 2969  Q 1341 3281 1617 3432  Q 1894 3584 2278 3584  Q 2916 3584 3314 3078  Q 3713 2572 3713 1747  Q 3713 922 3314 415  Q 2916 -91 2278 -91  Q 1894 -91 1617 61  Q 1341 213 1159 525  L 1159 0  L 581 0  L 581 4863  L 1159 4863  L 1159 2969  z "
                 transform="scale(0.015625)" />
              <path
                 id="DejaVuSans-66"
                 d="M 2375 4863  L 2375 4384  L 1825 4384  Q 1516 4384 1395 4259  Q 1275 4134 1275 3809  L 1275 3500  L 2222 3500  L 2222 3053  L 1275 3053  L 1275 0  L 697 0  L 697 3053  L 147 3053  L 147 3500  L 697 3500  L 697 3744  Q 697 4328 969 4595  Q 1241 4863 1831 4863  L 2375 4863  z "
                 transform="scale(0.015625)" />
              <path
                 id="DejaVuSans-43"
                 d="M 4122 4306  L 4122 3641  Q 3803 3938 3442 4084  Q 3081 4231 2675 4231  Q 1875 4231 1450 3742  Q 1025 3253 1025 2328  Q 1025 1406 1450 917  Q 1875 428 2675 428  Q 3081 428 3442 575  Q 3803 722 4122 1019  L 4122 359  Q 3791 134 3420 21  Q 3050 -91 2638 -91  Q 1578 -91 968 557  Q 359 1206 359 2328  Q 359 3453 968 4101  Q 1578 4750 2638 4750  Q 3056 4750 3426 4639  Q 3797 4528 4122 4306  z "
                 transform="scale(0.015625)" />
              <path
                 id="DejaVuSans-4f"
                 d="M 2522 4238  Q 1834 4238 1429 3725  Q 1025 3213 1025 2328  Q 1025 1447 1429 934  Q 1834 422 2522 422  Q 3209 422 3611 934  Q 4013 1447 4013 2328  Q 4013 3213 3611 3725  Q 3209 4238 2522 4238  z M 2522 4750  Q 3503 4750 4090 4092  Q 4678 3434 4678 2328  Q 4678 1225 4090 567  Q 3503 -91 2522 -91  Q 1538 -91 948 565  Q 359 1222 359 2328  Q 359 3434 948 4092  Q 1538 4750 2522 4750  z "
                 transform="scale(0.015625)" />
            </defs>
            <use
               xlink:href="#DejaVuSans-4e"
               id="use68" />
            <use
               xlink:href="#DejaVuSans-75"
               transform="translate(74.804688 0)"
               id="use69" />
            <use
               xlink:href="#DejaVuSans-6d"
               transform="translate(138.183594 0)"
               id="use70" />
            <use
               xlink:href="#DejaVuSans-62"
               transform="translate(235.595703 0)"
               id="use71" />
            <use
               xlink:href="#DejaVuSans-65"
               transform="translate(299.072266 0)"
               id="use72" />
            <use
               xlink:href="#DejaVuSans-72"
               transform="translate(360.595703 0)"
               id="use73" />
            <use
               xlink:href="#DejaVuSans-20"
               transform="translate(401.708984 0)"
               id="use74" />
            <use
               xlink:href="#DejaVuSans-6f"
               transform="translate(433.496094 0)"
               id="use75" />
            <use
               xlink:href="#DejaVuSans-66"
               transform="translate(494.677734 0)"
               id="use76" />
            <use
               xlink:href="#DejaVuSans-20"
               transform="translate(529.882812 0)"
               id="use77" />
            <use
               xlink:href="#DejaVuSans-43"
               transform="translate(561.669922 0)"
               id="use78" />
            <use
               xlink:href="#DejaVuSans-4e"
               transform="translate(631.494141 0)"
               id="use79" />
            <use
               xlink:href="#DejaVuSans-4f"
               transform="translate(706.298828 0)"
               id="use80" />
            <use
               xlink:href="#DejaVuSans-54"
               transform="translate(785.009766 0)"
               id="use81" />
            <use
               xlink:href="#DejaVuSans-73"
               transform="translate(829.59375 0)"
               id="use82" />
          </g>
        </g>
      </g>
      <g
         id="line2d_15">
        <path
           d="M 73.832727 256.531338  L 236.16 52.320691  L 398.487273 154.426014  "
           clip-path="url(#p2241715108)"
           style="fill: none; stroke-dasharray: 1.5,2.475; stroke-dashoffset: 0; stroke: #179c7d; stroke-width: 1.5"
           id="path82" />
        <defs
           id="defs82">
          <path
             id="mceca38390e"
             d="M -3 3  L 3 -3  M -3 -3  L 3 3  "
             style="stroke: #179c7d" />
        </defs>
        <g
           clip-path="url(#p2241715108)"
           id="g85">
          <use
             xlink:href="#mceca38390e"
             x="73.832727"
             y="256.531338"
             style="fill: #179c7d; stroke: #179c7d"
             id="use83" />
          <use
             xlink:href="#mceca38390e"
             x="236.16"
             y="52.320691"
             style="fill: #179c7d; stroke: #179c7d"
             id="use84" />
          <use
             xlink:href="#mceca38390e"
             x="398.487273"
             y="154.426014"
             style="fill: #179c7d; stroke: #179c7d"
             id="use85" />
        </g>
      </g>
      <g
         id="LineCollection_1">
        <path
           d="M 57.6 69.338245  L 414.72 69.338245  "
           clip-path="url(#p2241715108)"
           style="fill: none; stroke-dasharray: 9.6,2.4,1.5,2.4; stroke-dashoffset: 0; stroke: #008598; stroke-width: 1.5"
           id="path85" />
      </g>
      <g
         id="LineCollection_2">
        <path
           d="M 57.6 269.294504  L 414.72 269.294504  "
           clip-path="url(#p2241715108)"
           style="fill: none; stroke-dasharray: 5.55,2.4; stroke-dashoffset: 0; stroke: #f58220; stroke-width: 1.5"
           id="path86" />
      </g>
      <g
         id="patch_3">
        <path
           d="M 57.6 307.584  L 57.6 41.472  "
           style="fill: none; stroke: #000000; stroke-width: 0.8; stroke-linejoin: miter; stroke-linecap: square"
           id="path87" />
      </g>
      <g
         id="patch_4">
        <path
           d="M 414.72 307.584  L 414.72 41.472  "
           style="fill: none; stroke: #000000; stroke-width: 0.8; stroke-linejoin: miter; stroke-linecap: square"
           id="path88" />
      </g>
      <g
         id="patch_5">
        <path
           d="M 57.6 307.584  L 414.72 307.584  "
           style="fill: none; stroke: #000000; stroke-width: 0.8; stroke-linejoin: miter; stroke-linecap: square"
           id="path89" />
      </g>
      <g
         id="patch_6">
        <path
           d="M 57.6 41.472  L 414.72 41.472  "
           style="fill: none; stroke: #000000; stroke-width: 0.8; stroke-linejoin: miter; stroke-linecap: square"
           id="path90" />
      </g>
      <g
         id="legend_1"
         transform="translate(-2.3220605,133.13147)">
        <g
           id="patch_7">
          <path
             d="M 340.38719,93.506375 H 407.72 q 2,0 2,-2 V 48.472 q 0,-2 -2,-2 h -67.33281 q -2,0 -2,2 v 43.034375 q 0,2 2,2 z"
             style="opacity:0.8;fill:#ffffff;stroke:#cccccc;stroke-linejoin:miter"
             id="path91" />
        </g>
        <g
           id="line2d_16">
          <path
             d="m 342.38719,54.570438 h 10 10"
             style="fill:none;stroke:#179c7d;stroke-width:1.5;stroke-dasharray:1.5, 2.475;stroke-dashoffset:0"
             id="path92" />
          <g
             id="g92">
            <use
               xlink:href="#mceca38390e"
               x="352.38718"
               y="54.570438"
               style="fill:#179c7d;stroke:#179c7d"
               id="use92" />
          </g>
        </g>
        <g
           id="text_17">
          <!-- tVHA -->
          <g
             transform="matrix(0.1,0,0,-0.1,370.38719,58.070438)"
             id="g96">
            <defs
               id="defs92">
              <path
                 id="DejaVuSans-56"
                 d="M 1831,0 50,4666 H 709 L 2188,738 3669,4666 h 656 L 2547,0 Z"
                 transform="scale(0.015625)" />
              <path
                 id="DejaVuSans-48"
                 d="m 628,4666 h 631 V 2753 h 2294 v 1913 h 631 V 0 H 3553 V 2222 H 1259 V 0 H 628 Z"
                 transform="scale(0.015625)" />
              <path
                 id="DejaVuSans-41"
                 d="M 2188,4044 1331,1722 h 1716 z m -357,622 h 716 L 4325,0 H 3669 L 3244,1197 H 1141 L 716,0 H 50 Z"
                 transform="scale(0.015625)" />
            </defs>
            <use
               xlink:href="#DejaVuSans-74"
               id="use93" />
            <use
               xlink:href="#DejaVuSans-56"
               transform="translate(39.208984)"
               id="use94" />
            <use
               xlink:href="#DejaVuSans-48"
               transform="translate(107.61719)"
               id="use95" />
            <use
               xlink:href="#DejaVuSans-41"
               transform="translate(182.8125)"
               id="use96" />
          </g>
        </g>
        <g
           id="line2d_17">
          <path
             d="m 342.38719,69.248563 h 20"
             style="fill:none;stroke:#008598;stroke-width:1.5;stroke-dasharray:9.6, 2.4, 1.5, 2.4;stroke-dashoffset:0"
             id="path96" />
        </g>
        <g
           id="text_18">
          <!-- UCCSD -->
          <g
             transform="matrix(0.1,0,0,-0.1,370.38719,72.748563)"
             id="g101">
            <defs
               id="defs96">
              <path
                 id="DejaVuSans-55"
                 d="m 556,4666 h 635 V 1831 q 0,-750 271,-1080 272,-329 882,-329 606,0 878,329 272,330 272,1080 v 2835 h 634 V 1753 Q 4128,841 3676,375 3225,-91 2344,-91 1459,-91 1007,375 556,841 556,1753 Z"
                 transform="scale(0.015625)" />
              <path
                 id="DejaVuSans-53"
                 d="m 3425,4513 v -616 q -359,172 -678,256 -319,85 -616,85 -515,0 -795,-200 -280,-200 -280,-569 0,-310 186,-468 186,-157 705,-254 l 381,-78 q 706,-135 1042,-474 336,-339 336,-907 0,-679 -455,-1029 -454,-350 -1332,-350 -331,0 -705,75 -373,75 -773,222 v 650 q 384,-215 753,-325 369,-109 725,-109 540,0 834,212 294,213 294,607 0,343 -211,537 -211,194 -692,291 l -385,75 q -706,140 -1022,440 -315,300 -315,835 0,619 436,975 436,356 1201,356 329,0 669,-60 341,-59 697,-177 z"
                 transform="scale(0.015625)" />
              <path
                 id="DejaVuSans-44"
                 d="M 1259,4147 V 519 h 763 q 966,0 1414,437 448,438 448,1382 0,937 -448,1373 -448,436 -1414,436 z m -631,519 h 1297 q 1356,0 1990,-564 635,-564 635,-1764 Q 4550,1131 3912,565 3275,0 1925,0 H 628 Z"
                 transform="scale(0.015625)" />
            </defs>
            <use
               xlink:href="#DejaVuSans-55"
               id="use97" />
            <use
               xlink:href="#DejaVuSans-43"
               transform="translate(73.193359)"
               id="use98" />
            <use
               xlink:href="#DejaVuSans-43"
               transform="translate(143.01758)"
               id="use99" />
            <use
               xlink:href="#DejaVuSans-53"
               transform="translate(212.8418)"
               id="use100" />
            <use
               xlink:href="#DejaVuSans-44"
               transform="translate(276.31836)"
               id="use101" />
          </g>
        </g>
        <g
           id="line2d_18">
          <path
             d="m 342.38719,83.926688 h 20"
             style="fill:none;stroke:#f58220;stroke-width:1.5;stroke-dasharray:5.55, 2.4;stroke-dashoffset:0"
             id="path101" />
        </g>
        <g
           id="text_19">
          <!-- HEA -->
          <g
             transform="matrix(0.1,0,0,-0.1,370.38719,87.426688)"
             id="g104">
            <defs
               id="defs101">
              <path
                 id="DejaVuSans-45"
                 d="M 628,4666 H 3578 V 4134 H 1259 V 2753 H 3481 V 2222 H 1259 V 531 H 3634 V 0 H 628 Z"
                 transform="scale(0.015625)" />
            </defs>
            <use
               xlink:href="#DejaVuSans-48"
               id="use102" />
            <use
               xlink:href="#DejaVuSans-45"
               transform="translate(75.195312)"
               id="use103" />
            <use
               xlink:href="#DejaVuSans-41"
               transform="translate(138.37891)"
               id="use104" />
          </g>
        </g>
      </g>
    </g>
  </g>
  <defs
     id="defs104">
    <clipPath
       id="p2241715108">
      <rect
         x="57.6"
         y="41.472"
         width="357.12"
         height="266.112"
         id="rect104" />
    </clipPath>
  </defs>
</svg>
